# xmcd
#
# Track frame offsets:
#	150
#	17296
#	33428
#	50848
#	64542
#	81207
#	97618
#	113812
#	132945
#	148983
#	162727
#	180150
#	194182
#	207109
#	224934
#	242874
#	258570
#	271351
#	289399
#
# Disc length: 4097 seconds
#
# Revision: 1
# Processed by: cddbd v1.5.2PL0 Copyright (c) Steve Scherf et al.
# Submitted via: audiograbber 1.83.01
#
DISCID=290fff13
DTITLE=Various Artist - Now! Country 3
DYEAR=2009
DGENRE=Country
TTITLE0=Keith Urban - Sweet Thing
TTITLE1=Zac Brown Band - Chicken Fried
TTITLE2=Terri Clark - Gypsy Boots
TTITLE3=Lady Antebellum - Lookin` For A Good Time
TTITLE4=Johnny Reid - A Woman Like You
TTITLE5=Darius Rucker - It Won`t Be Like This For Long
TTITLE6=Victoria Banks - The Wheel
TTITLE7=Sugarland Featuring Little Big Town and Jake Owen - Life In A Northern To
TTITLE7=wn (Live)
TTITLE8=Aaron Pritchett - Hard To Miss
TTITLE9=Dierks Bentley - Sideways
TTITLE10=One More Girl - I Can Love Anyone
TTITLE11=The Road Hammers - Homegrown
TTITLE12=Gord Bamford - Drinkin` Buddy 
TTITLE13=Trace Adkins - All I Ask For Anymore
TTITLE14=Blake Shelton - I`ll Just Hold On
TTITLE15=Jessie Farrell - You Make Me Feel
TTITLE16=Eric Church - Love Your Love The Most
TTITLE17=John Rich - Shuttin` Detroit Down
TTITLE18=Luke Bryan - Do I
EXTD=
EXTT0=
EXTT1=
EXTT2=
EXTT3=
EXTT4=
EXTT5=
EXTT6=
EXTT7=
EXTT8=
EXTT9=
EXTT10=
EXTT11=
EXTT12=
EXTT13=
EXTT14=
EXTT15=
EXTT16=
EXTT17=
EXTT18=
PLAYORDER=
